<?xml version="1.0" encoding="UTF-8"?>
<svg version="1.1" xmlns="http://www.w3.org/2000/svg" width="626" height="470">
<path d="M0 0 C206.58 0 413.16 0 626 0 C626 155.1 626 310.2 626 470 C419.42 470 212.84 470 0 470 C0 314.9 0 159.8 0 0 Z " fill="#000000" transform="translate(0,0)"/>
<path d="M0 0 C14.65647405 -0.13582418 29.312553 -0.24618818 43.96951675 -0.31087303 C50.7761322 -0.34171546 57.58232674 -0.38370904 64.38867188 -0.45263672 C70.96333973 -0.51918605 77.53773552 -0.55375724 84.1127243 -0.56926346 C86.61485402 -0.58030679 89.11696122 -0.60187172 91.61890411 -0.63438034 C118.16537615 -0.96543305 118.16537615 -0.96543305 128.18878174 7.94595337 C134.29082002 14.02383025 137.16111985 21.47333813 137.5 30 C137.34024541 35.16539839 136.10130954 39.20560513 133.875 43.84375 C132.74932213 46.22990462 132.74932213 46.22990462 133 50 C133.78389639 51.44460906 134.62453132 52.85897754 135.5 54.25 C139.42569357 61.83219673 139.51181856 70.87846487 137.11328125 79.00390625 C133.32588325 87.24558628 127.28352192 93.040557 119.16583252 96.96566772 C112.53980167 99.13050668 105.51159074 98.60254284 98.6171875 98.48828125 C96.94997221 98.47893865 95.28274305 98.47182939 93.61550903 98.46684265 C89.25867833 98.44788637 84.90270068 98.39888649 80.54620361 98.34332275 C76.08821141 98.29188242 71.63007938 98.26927607 67.171875 98.24414062 C58.44752818 98.19075427 49.72387065 98.10558282 41 98 C45.54141918 88.89240568 50.87852763 79.6043042 61 76 C71.71714511 73.93833785 82.92236199 74.49957182 93.77734375 74.79223633 C94.87426544 74.82024826 95.97118713 74.84826019 97.10134888 74.87712097 C99.19639605 74.94215771 101.29087582 75.03089352 103.38375854 75.14619446 C108.84564863 75.47088287 108.84564863 75.47088287 113.63720703 73.18896484 C115.49791107 70.20023815 115.57635057 68.45810341 115 65 C113.00396504 62.49521219 111.78786235 61.17185792 108.62078857 60.48101807 C107.74142639 60.47213562 106.86206421 60.46325317 105.95605469 60.45410156 C104.95531921 60.43438293 103.95458374 60.41466431 102.92352295 60.39434814 C101.85047913 60.39311951 100.7774353 60.39189087 99.671875 60.390625 C98.56773254 60.37408875 97.46359009 60.35755249 96.32598877 60.34051514 C92.80060311 60.29194374 89.27564911 60.2706431 85.75 60.25 C83.35935318 60.2218481 80.96872654 60.19192178 78.578125 60.16015625 C72.71854964 60.08284241 66.8603483 60.04240484 61 60 C61 52.74 61 45.48 61 38 C64.41859375 37.93941406 67.8371875 37.87882812 71.359375 37.81640625 C74.66896754 37.75460453 77.97852629 37.69122191 81.28808594 37.62768555 C83.58883662 37.58436394 85.88961888 37.54268687 88.19042969 37.50268555 C91.49684161 37.44491605 94.803095 37.38124051 98.109375 37.31640625 C99.13867126 37.29969376 100.16796753 37.28298126 101.22845459 37.26576233 C102.18914856 37.24581711 103.14984253 37.22587189 104.13964844 37.20532227 C105.40539703 37.18200584 105.40539703 37.18200584 106.69671631 37.15821838 C108.91375644 37.00592429 110.86850379 36.61217912 113 36 C113.19573608 34.56359829 113.38127816 33.12580496 113.5625 31.6875 C113.66691406 30.88699219 113.77132812 30.08648437 113.87890625 29.26171875 C114.14755178 26.83182884 114.14755178 26.83182884 113 24 C110.16115763 22.9155352 107.39594252 22.86609631 104.38092041 22.84178162 C103.45827896 22.8319928 102.53563751 22.82220398 101.58503723 22.81211853 C100.58018784 22.80636307 99.57533844 22.8006076 98.54003906 22.79467773 C97.47631577 22.78477814 96.41259247 22.77487854 95.31663513 22.76467896 C91.79965442 22.73308433 88.2826602 22.70831446 84.765625 22.68359375 C82.32753142 22.66302247 79.88944139 22.64202596 77.45135498 22.62062073 C71.03329342 22.56541804 64.61519978 22.51600074 58.19708252 22.46777344 C51.64828637 22.41754531 45.09953683 22.36186608 38.55078125 22.30664062 C25.70055917 22.19908106 12.85029751 22.09813482 0 22 C0 14.74 0 7.48 0 0 Z " fill="#FCFCFC" transform="translate(265,186)"/>
<path d="M0 0 C7.26 0 14.52 0 22 0 C22 12.54 22 25.08 22 38 C39.49 38 56.98 38 75 38 C75 34.7 75 31.4 75 28 C82.26 28 89.52 28 97 28 C100.45947924 74.76703419 100.45947924 74.76703419 92.359375 84.9296875 C87.73049538 90.17635535 82.0876897 94.5698952 76 98 C75.67 98 75.34 98 75 98 C75 85.46 75 72.92 75 60 C57.51 60 40.02 60 22 60 C22 72.54 22 85.08 22 98 C14.74 98 7.48 98 0 98 C0 65.66 0 33.32 0 0 Z " fill="#FDFDFD" transform="translate(223,186)"/>
<path d="M0 0 C14.6987921 -0.07001853 29.39756218 -0.12295297 44.09648705 -0.15543652 C50.92115217 -0.17091874 57.7457138 -0.19203393 64.5703125 -0.22631836 C71.15143229 -0.25936394 77.7324725 -0.27683321 84.31367874 -0.28463173 C86.82960329 -0.29019214 89.34552168 -0.30104959 91.8614006 -0.31719017 C95.37436604 -0.33883939 98.88688138 -0.34197214 102.39990234 -0.34057617 C103.44934525 -0.351362 104.49878815 -0.36214783 105.58003235 -0.3732605 C106.53358109 -0.36913651 107.48712982 -0.36501251 108.46957397 -0.36076355 C109.30103125 -0.36352893 110.13248852 -0.36629431 110.98914146 -0.36914349 C111.65272478 -0.24732614 112.3163081 -0.12550879 113 0 C115 3 115 3 114.8125 6.5 C114.0284084 9.87762534 113.73175021 11.03313985 111 13 C108.58225419 14.20887291 107.06668936 14.12059343 104.36669922 14.11352539 C103.40585419 14.11344986 102.44500916 14.11337433 101.45504761 14.11329651 C100.41542877 14.10813522 99.37580994 14.10297394 98.3046875 14.09765625 C97.24210724 14.0962413 96.17952698 14.09482635 95.08474731 14.09336853 C91.68146991 14.08775834 88.27825762 14.07520409 84.875 14.0625 C82.57161553 14.05748631 80.26823003 14.05292318 77.96484375 14.04882812 C72.30985039 14.03863527 66.65499833 14.01906179 61 14 C61 21.26 61 28.52 61 36 C64.55136719 35.94199219 68.10273438 35.88398438 71.76171875 35.82421875 C75.20367195 35.7852181 78.64560047 35.75486192 82.08764648 35.7253418 C84.47870919 35.70020685 86.86969514 35.66609367 89.26049805 35.62280273 C92.69859764 35.56210939 96.13568096 35.53377928 99.57421875 35.51171875 C100.64210129 35.48591232 101.70998383 35.4601059 102.81022644 35.43351746 C110.22855935 35.43071773 110.22855935 35.43071773 114.17504883 38.34301758 C116 41 116 41 116.625 44 C115.74908884 48.20437358 114.45890119 49.44071371 111 52 C107.33013787 52.61496042 103.73812923 52.41137726 100.03125 52.25 C97.82815808 52.21770995 95.62502961 52.18784071 93.421875 52.16015625 C89.96877105 52.09021378 86.51959766 52.00076126 83.06835938 51.86669922 C69.06794334 50.80961229 69.06794334 50.80961229 56.6484375 55.99609375 C54.29108268 58.26486614 52.30383847 60.67964501 50.33789062 63.2890625 C49.56638672 64.18367188 48.79488281 65.07828125 48 66 C45.67773438 65.8984375 45.67773438 65.8984375 44 65 C45.43964886 61.56670127 47.22737981 59.83306529 50.0625 57.46875 C54.24856865 53.36594854 54.94475413 50.38332255 55.05883789 44.62280273 C55.03942139 43.59227783 55.02000488 42.56175293 55 41.5 C55.01087646 40.42371338 55.02175293 39.34742676 55.03295898 38.23852539 C55.05900774 34.82464968 55.03033841 31.41379341 55 28 C55.00809612 25.67576581 55.01977722 23.35154116 55.03515625 21.02734375 C55.07162934 15.34969888 55.03400839 9.67940053 55 4 C47.74 4 40.48 4 33 4 C33 3.34 33 2.68 33 2 C22.11 1.67 11.22 1.34 0 1 C0 0.67 0 0.34 0 0 Z " fill="#090909" transform="translate(265,210)"/>
<path d="M0 0 C0.33 0 0.66 0 1 0 C1 15.84 1 31.68 1 48 C1.66 48 2.32 48 3 48 C3 42.72 3 37.44 3 32 C5.938118 31.02062733 7.79332246 30.88161862 10.85107422 30.89892578 C11.83574677 30.90288361 12.82041931 30.90684143 13.83493042 30.91091919 C18.32809134 30.95891495 22.82106167 31.00861157 27.31396484 31.07714844 C29.68428799 31.10899976 32.05477879 31.13019226 34.42529297 31.140625 C37.84415998 31.15585169 41.26124891 31.20323236 44.6796875 31.2578125 C45.73815887 31.25701691 46.79663025 31.25622131 47.88717651 31.25540161 C55.22740052 31.42480689 55.22740052 31.42480689 59.16845703 34.35888672 C61 37 61 37 61.625 40 C60.74908884 44.20437358 59.45890119 45.44071371 56 48 C52.33013787 48.61496042 48.73812923 48.41137726 45.03125 48.25 C42.82815808 48.21770995 40.62502961 48.18784071 38.421875 48.16015625 C34.96877105 48.09021378 31.51959766 48.00076126 28.06835938 47.86669922 C14.06794334 46.80961229 14.06794334 46.80961229 1.6484375 51.99609375 C-0.70891732 54.26486614 -2.69616153 56.67964501 -4.66210938 59.2890625 C-5.43361328 60.18367188 -6.20511719 61.07828125 -7 62 C-9.32226562 61.8984375 -9.32226562 61.8984375 -11 61 C-9.56035114 57.56670127 -7.77262019 55.83306529 -4.9375 53.46875 C-0.75143135 49.36594854 -0.05524587 46.38332255 0.05883789 40.62280273 C0.03942139 39.59227783 0.02000488 38.56175293 0 37.5 C0.01087646 36.42371338 0.02175293 35.34742676 0.03295898 34.23852539 C0.05900774 30.82464968 0.03033841 27.41379341 0 24 C0.00809612 21.67576581 0.01977722 19.35154116 0.03515625 17.02734375 C0.0649272 11.35101501 0.04986488 5.67615813 0 0 Z " fill="#0A0A0A" transform="translate(320,214)"/>
<path d="M0 0 C17.49 0 34.98 0 53 0 C52.67 12.21 52.34 24.42 52 37 C51.67 37 51.34 37 51 37 C51 25.78 51 14.56 51 3 C34.83 3 18.66 3 2 3 C2 14.55 2 26.1 2 38 C1.34 37.67 0.68 37.34 0 37 C0 24.79 0 12.58 0 0 Z " fill="#131313" transform="translate(245,246)"/>
<path d="M0 0 C0.33 0 0.66 0 1 0 C1 15.84 1 31.68 1 48 C1.99 48.33 2.98 48.66 4 49 C3.3503125 49.5878125 3.3503125 49.5878125 2.6875 50.1875 C0.8951278 51.97755989 0.8951278 51.97755989 -0.375 54.375 C-2.27501388 57.4442532 -4.2196849 59.69437284 -7 62 C-9.3125 61.8125 -9.3125 61.8125 -11 61 C-9.56035114 57.56670127 -7.77262019 55.83306529 -4.9375 53.46875 C-0.75143135 49.36594854 -0.05524587 46.38332255 0.05883789 40.62280273 C0.03942139 39.59227783 0.02000488 38.56175293 0 37.5 C0.01087646 36.42371338 0.02175293 35.34742676 0.03295898 34.23852539 C0.05900774 30.82464968 0.03033841 27.41379341 0 24 C0.00809612 21.67576581 0.01977722 19.35154116 0.03515625 17.02734375 C0.0649272 11.35101501 0.04986488 5.67615813 0 0 Z " fill="#3D3D3D" transform="translate(320,214)"/>
<path d="M0 0 C1.32 0.66 2.64 1.32 4 2 C0.48417174 6.66283606 -2.03648545 9.72210402 -8 11 C-8 8 -8 8 -6.25 5.95703125 C-5.5075 5.24933594 -4.765 4.54164063 -4 3.8125 C-2.88625 2.73935547 -2.88625 2.73935547 -1.75 1.64453125 C-1.1725 1.10183594 -0.595 0.55914062 0 0 Z " fill="#0B0B0B" transform="translate(308,274)"/>
<path d="M0 0 C0.66 0 1.32 0 2 0 C1.49125088 2.5437456 0.98501324 5.05585973 0.3125 7.5625 C-0.05314624 10.41454069 0.49176795 11.60457263 2 14 C1.01 14.495 1.01 14.495 0 15 C-2.125 12.3125 -2.125 12.3125 -4 9 C-3.375 6.375 -3.375 6.375 -2 4 C-1.62875 3.236875 -1.2575 2.47375 -0.875 1.6875 C-0.58625 1.130625 -0.2975 0.57375 0 0 Z " fill="#111111" transform="translate(400,226)"/>
<path d="M0 0 C-1.43294498 0.84114171 -2.87154405 1.67265687 -4.3125 2.5 C-5.51326172 3.19609375 -5.51326172 3.19609375 -6.73828125 3.90625 C-9 5 -9 5 -12 5 C-12 4.34 -12 3.68 -12 3 C-10.75823305 2.29773859 -9.50614401 1.61370891 -8.25 0.9375 C-7.20585937 0.36322266 -7.20585937 0.36322266 -6.140625 -0.22265625 C-3.63859372 -1.1312406 -2.4667645 -0.88336837 0 0 Z " fill="#111111" transform="translate(393,280)"/>
<path d="M0 0 C0.66 0 1.32 0 2 0 C0.64978174 4.41889613 -1.26115668 6.34345343 -5 9 C-5 4.68381834 -2.86729652 3.07210341 0 0 Z " fill="#1A1A1A" transform="translate(399,269)"/>
<path d="M0 0 C0.66 0.33 1.32 0.66 2 1 C1.67 3.31 1.34 5.62 1 8 C0.34 8 -0.32 8 -1 8 C-1.04241723 5.66705225 -1.04092937 3.33297433 -1 1 C-0.67 0.67 -0.34 0.34 0 0 Z " fill="#212121" transform="translate(378,212)"/>
</svg>
